<?xml version="1.0" encoding="UTF-8" standalone="no"?>
        <svg 
    viewBox="3.8818359375 -85.986328125 448.0224609375 57.12890625"
    width="444.140625"
    height="143.115234375"
   xmlns="http://www.w3.org/2000/svg"
   xmlns:svg="http://www.w3.org/2000/svg">
   <path d="M63.13-97.78L63.13-128.69L90.75-126.78Q90.53-125.17 89.50-124.07Q88.48-122.97 85.33-122.39L85.33-122.39L85.33-97.78L112.94-97.78L124.51-112.79Q124.51-112.79 126.64-111.15Q128.76-109.50 132.09-106.93Q135.42-104.37 139.05-101.44Q142.68-98.51 145.68-96.02L145.68-96.02Q145.31-94.78 144.10-94.19Q142.90-93.60 141.28-93.60L141.28-93.60L73.17-93.60Q72.73-86.94 72.03-80.53Q71.34-74.12 70.39-67.82L70.39-67.82L99.61-67.82L110.82-78.59L129.42-62.70Q127.51-60.57 122.83-59.69L122.83-59.69Q120.92-30.25 117.22-14.28Q113.53 1.68 106.35 7.18L106.35 7.18Q101.88 10.69 96.39 12.23Q90.89 13.77 82.18 13.77L82.18 13.77Q82.18 8.94 81.45 5.20Q80.71 1.46 78.44-0.73L78.44-0.73Q76.10-3.37 71.63-5.35Q67.16-7.32 61.23-8.57L61.23-8.57L61.23-10.18Q65.26-9.89 70.09-9.59Q74.93-9.30 79.10-9.08Q83.28-8.86 85.18-8.86L85.18-8.86Q88.48-8.86 90.75-10.47L90.75-10.47Q94.48-13.40 96.97-27.21Q99.46-41.02 100.93-63.57L100.93-63.57L69.58-63.57Q66.28-46.73 59.14-31.90Q52.00-17.07 39.04-5.31Q26.07 6.45 5.42 14.14L5.42 14.14L4.47 12.74Q18.09 2.78 26.73-9.34Q35.38-21.46 40.17-35.16Q44.97-48.85 46.91-63.61Q48.85-78.37 49.07-93.60L49.07-93.60L5.13-93.60L3.88-97.78L63.13-97.78ZM180.03-128.39L180.03-128.39L209.25-119.68Q208.30-116.53 203.10-116.53L203.10-116.53Q199.58-107.52 195.63-99.24Q191.67-90.97 187.21-83.57L187.21-83.57L196.66-80.13Q196.29-78.96 195.26-78.26Q194.24-77.56 191.97-77.12L191.97-77.12L191.97-26.88Q202.66-39.77 210.13-55.85Q217.60-71.92 222.44-88.18L222.44-88.18L195.26-88.18L194.09-92.43L223.54-92.43Q226.10-101.66 227.82-110.52Q229.54-119.38 230.57-127.37L230.57-127.37L261.04-119.38Q260.52-118.07 259.39-117.11Q258.25-116.16 255.32-115.94L255.32-115.94Q253.64-110.30 251.55-104.41Q249.46-98.51 246.90-92.43L246.90-92.43L265.21-92.43L276.42-108.03Q276.42-108.03 278.50-106.31Q280.59-104.59 283.74-101.88Q286.89-99.17 290.33-96.17Q293.77-93.16 296.56-90.60L296.56-90.60Q295.90-88.18 292.24-88.18L292.24-88.18L245.07-88.18Q242.14-81.45 238.55-74.67Q234.96-67.90 230.57-61.38L230.57-61.38L238.62-58.37L263.09-58.37L272.68-68.99L292.24-53.98Q291.50-53.10 290.11-52.11Q288.72-51.12 286.38-50.68L286.38-50.68L286.38 6.01Q286.23 6.59 283.23 7.84Q280.22 9.08 276.05 10.11Q271.88 11.13 268.21 11.13L268.21 11.13L264.62 11.13L264.62-1.98L236.57-1.98L236.57 6.74Q236.57 7.91 231.96 10.40Q227.34 12.89 219.14 12.89L219.14 12.89L215.26 12.89L215.26-42.11Q210.21-36.99 204.42-32.26Q198.63-27.54 191.97-23.36L191.97-23.36L191.97 8.28Q191.89 9.01 189.26 10.44Q186.62 11.87 182.59 13.07Q178.56 14.28 174.32 14.28L174.32 14.28L170.21 14.28L170.21-59.99Q166.33-55.37 162.05-51.31Q157.76-47.24 153.30-43.65L153.30-43.65L151.68-44.68Q157.10-55.00 162.56-68.77Q168.02-82.54 172.60-97.92Q177.17-113.31 180.03-128.39ZM264.62-54.13L236.57-54.13L236.57-6.15L264.62-6.15L264.62-54.13ZM376.83-111.47L378.88-128.10L404.22-125.10Q403.56-121.29 398.22-120.63L398.22-120.63L397.05-111.47L407.08-111.47L416.09-120.78L433.81-107.52Q433.15-106.79 431.76-105.98Q430.37-105.18 428.10-104.74L428.10-104.74L428.10-90.45L434.99-102.47Q434.99-102.47 437.26-100.01Q439.53-97.56 442.57-94.15Q445.61-90.75 447.73-87.89L447.73-87.89Q447.07-85.47 443.85-85.47L443.85-85.47L354.93-85.47L353.69-89.72L373.68-89.72L376.17-107.23L364.53-107.23L363.13-111.47L376.83-111.47ZM393.75-89.72L408.62-89.72L408.62-107.23L396.46-107.23L393.75-89.72ZM364.82-10.77L364.82-33.76L364.82-41.67L386.43-33.76L395.21-33.76L395.21-47.97L413.09-46.51L413.09-50.24L381.59-50.24Q381.59-49.44 379.03-48.05Q376.46-46.66 372.55-45.52Q368.63-44.38 364.67-44.38L364.67-44.38L361.96-44.38L361.96-82.62L382.47-74.85L411.62-74.85L420.63-84.74L439.67-70.53Q438.94-69.58 437.48-68.70Q436.01-67.82 433.67-67.38L433.67-67.38L433.67-51.12Q433.67-50.61 430.81-49.48Q427.95-48.34 424.00-47.35Q420.04-46.36 416.67-46.36L416.67-46.36L415.06-46.36L420.48-45.92Q420.19-44.68 419.38-43.80Q418.58-42.92 416.24-42.48L416.24-42.48L416.24-33.76L420.63-33.76L429.27-44.97Q429.27-44.97 431.98-42.85Q434.69-40.72 438.32-37.68Q441.94-34.64 444.87-31.93L444.87-31.93Q444.43-29.52 440.84-29.52L440.84-29.52L416.24-29.52L416.24-10.77L422.53-10.77L431.69-23.07Q431.69-23.07 434.51-20.76Q437.33-18.46 441.14-15.16Q444.95-11.87 448.02-9.01L448.02-9.01Q447.36-6.59 443.85-6.59L443.85-6.59L416.24-6.59L416.24 9.45Q416.24 10.11 413.56 11.28Q410.89 12.45 406.90 13.44Q402.91 14.43 399.02 14.43L399.02 14.43L395.21 14.43L395.21-6.59L349.80-6.59L348.63-10.77L364.82-10.77ZM384.30-10.77L395.21-10.77L395.21-29.52L384.30-29.52L384.30-10.77ZM381.59-70.68L381.59-54.42L413.09-54.42L413.09-70.68L381.59-70.68ZM311.13-1.98L302.12-26.07L319.48-29.22L319.48-65.84L306.74-65.84L305.57-70.02L319.48-70.02L319.48-107.52L305.27-107.52L304.03-111.77L334.50-111.77L343.95-125.68Q343.95-125.68 345.67-124.15Q347.39-122.61 350.02-120.19Q352.66-117.77 355.52-115.03Q358.37-112.28 360.57-109.94L360.57-109.94Q360.13-107.52 356.54-107.52L356.54-107.52L340.50-107.52L340.50-72.73L346.51-82.76Q346.51-82.76 348.85-80.35Q351.20-77.93 354.31-74.52Q357.42-71.12 359.69-68.26L359.69-68.26Q359.25-65.84 355.81-65.84L355.81-65.84L340.50-65.84L340.50-33.47L359.69-37.65L359.99-36.18Q353.47-30.98 342.44-23.36Q331.42-15.75 315.45-6.15L315.45-6.15Q314.21-2.64 311.13-1.98L311.13-1.98Z"/>
    </svg>
        